HIERARCHY
ROOT Hips
{
	OFFSET 0.000000 97.167313 0.000000
	CHANNELS 6 Xposition Yposition Zposition Xrotation Yrotation Zrotation
	JOINT Spine
	{
		OFFSET 0.000000 13.784798 0.064400
		CHANNELS 3 Xrotation Yrotation Zrotation
		JOINT Spine1
		{
			OFFSET 0.000000 12.037903 0.404700
			CHANNELS 3 Xrotation Yrotation Zrotation
			JOINT Spine2
			{
				OFFSET 0.000000 17.795601 0.420200
				CHANNELS 3 Xrotation Yrotation Zrotation
				JOINT Neck
				{
					OFFSET 0.000000 39.131302 11.954600
					CHANNELS 3 Xrotation Yrotation Zrotation
					JOINT Head
					{
						OFFSET 0.000000 14.456192 15.627699
						CHANNELS 3 Xrotation Yrotation Zrotation
						JOINT HeadTop_End
						{
							OFFSET 0.000000 15.703506 7.603401
							CHANNELS 3 Xrotation Yrotation Zrotation
							End Site
							{
								OFFSET 0.000000 17.447403 0.000000
							}
						}
					}
				}
				JOINT LeftShoulder
				{
					OFFSET 17.399500 24.608795 1.168800
					CHANNELS 3 Xrotation Yrotation Zrotation
					JOINT LeftArm
					{
						OFFSET 18.980635 5.765305 1.818600
						CHANNELS 3 Xrotation Yrotation Zrotation
						JOINT LeftForeArm
						{
							OFFSET 49.290169 0.000000 0.000000
							CHANNELS 3 Xrotation Yrotation Zrotation
							JOINT LeftHand
							{
								OFFSET 31.562012 0.000000 0.000000
								CHANNELS 3 Xrotation Yrotation Zrotation
								JOINT LeftHandThumb1
								{
									OFFSET 6.133995 -4.388519 7.076070
									CHANNELS 3 Xrotation Yrotation Zrotation
									JOINT LeftHandThumb2
									{
										OFFSET 6.037666 -3.485840 3.485847
										CHANNELS 3 Xrotation Yrotation Zrotation
										JOINT LeftHandThumb3
										{
											OFFSET 6.496506 -3.750763 3.750761
											CHANNELS 3 Xrotation Yrotation Zrotation
											JOINT LeftHandThumb4
											{
												OFFSET 5.616882 -3.242905 3.242910
												CHANNELS 3 Xrotation Yrotation Zrotation
												End Site
												{
													OFFSET -1.254608 7.132141 0.375429
												}
											}
										}
									}
								}
								JOINT LeftHandPinky1
								{
									OFFSET 18.920792 -0.453171 -11.426712
									CHANNELS 3 Xrotation Yrotation Zrotation
									JOINT LeftHandPinky2
									{
										OFFSET 4.919586 0.000000 0.000000
										CHANNELS 3 Xrotation Yrotation Zrotation
										JOINT LeftHandPinky3
										{
											OFFSET 5.233047 0.000000 0.000000
											CHANNELS 3 Xrotation Yrotation Zrotation
											JOINT LeftHandPinky4
											{
												OFFSET 5.571716 0.000000 0.000000
												CHANNELS 3 Xrotation Yrotation Zrotation
												End Site
												{
													OFFSET -3.459808 4.342407 -0.466164
												}
											}
										}
									}
								}
								JOINT LeftHandRing1
								{
									OFFSET 22.726120 -0.094986 -6.500475
									CHANNELS 3 Xrotation Yrotation Zrotation
									JOINT LeftHandRing2
									{
										OFFSET 6.408615 0.000000 0.000000
										CHANNELS 3 Xrotation Yrotation Zrotation
										JOINT LeftHandRing3
										{
											OFFSET 6.150223 0.000000 0.000000
											CHANNELS 3 Xrotation Yrotation Zrotation
											JOINT LeftHandRing4
											{
												OFFSET 6.145386 0.000000 0.000000
												CHANNELS 3 Xrotation Yrotation Zrotation
												End Site
												{
													OFFSET -3.671402 4.923981 -0.202372
												}
											}
										}
									}
								}
								JOINT LeftHandMiddle1
								{
									OFFSET 23.373947 0.000000 0.000001
									CHANNELS 3 Xrotation Yrotation Zrotation
									JOINT LeftHandMiddle2
									{
										OFFSET 6.996567 0.000000 0.000000
										CHANNELS 3 Xrotation Yrotation Zrotation
										JOINT LeftHandMiddle3
										{
											OFFSET 7.015945 0.000000 0.000000
											CHANNELS 3 Xrotation Yrotation Zrotation
											JOINT LeftHandMiddle4
											{
												OFFSET 7.721573 0.000000 0.000000
												CHANNELS 3 Xrotation Yrotation Zrotation
												End Site
												{
													OFFSET -4.651108 6.158463 0.251582
												}
											}
										}
									}
								}
								JOINT LeftHandIndex1
								{
									OFFSET 21.310577 -0.490082 6.209344
									CHANNELS 3 Xrotation Yrotation Zrotation
									JOINT LeftHandIndex2
									{
										OFFSET 7.536453 0.000000 0.000000
										CHANNELS 3 Xrotation Yrotation Zrotation
										JOINT LeftHandIndex3
										{
											OFFSET 7.512344 0.000000 0.000000
											CHANNELS 3 Xrotation Yrotation Zrotation
											JOINT LeftHandIndex4
											{
												OFFSET 10.212402 0.000000 0.000001
												CHANNELS 3 Xrotation Yrotation Zrotation
												End Site
												{
													OFFSET -5.180801 8.690506 1.388433
												}
											}
										}
									}
								}
							}
						}
					}
				}
				JOINT RightShoulder
				{
					OFFSET -17.399500 24.608795 1.168800
					CHANNELS 3 Xrotation Yrotation Zrotation
					JOINT RightArm
					{
						OFFSET -18.980635 5.765305 1.818600
						CHANNELS 3 Xrotation Yrotation Zrotation
						JOINT RightForeArm
						{
							OFFSET -49.290169 0.000000 0.000000
							CHANNELS 3 Xrotation Yrotation Zrotation
							JOINT RightHand
							{
								OFFSET -31.562012 0.000000 0.000000
								CHANNELS 3 Xrotation Yrotation Zrotation
								JOINT RightHandThumb1
								{
									OFFSET -6.133995 -4.388519 7.076070
									CHANNELS 3 Xrotation Yrotation Zrotation
									JOINT RightHandThumb2
									{
										OFFSET -6.037666 -3.485840 3.485847
										CHANNELS 3 Xrotation Yrotation Zrotation
										JOINT RightHandThumb3
										{
											OFFSET -6.496506 -3.750763 3.750761
											CHANNELS 3 Xrotation Yrotation Zrotation
											JOINT RightHandThumb4
											{
												OFFSET -5.616882 -3.242905 3.242910
												CHANNELS 3 Xrotation Yrotation Zrotation
												End Site
												{
													OFFSET 1.254608 7.132141 0.375429
												}
											}
										}
									}
								}
								JOINT RightHandIndex1
								{
									OFFSET -21.310577 -0.490082 6.209344
									CHANNELS 3 Xrotation Yrotation Zrotation
									JOINT RightHandIndex2
									{
										OFFSET -7.536453 0.000000 0.000000
										CHANNELS 3 Xrotation Yrotation Zrotation
										JOINT RightHandIndex3
										{
											OFFSET -7.512344 0.000000 0.000000
											CHANNELS 3 Xrotation Yrotation Zrotation
											JOINT RightHandIndex4
											{
												OFFSET -10.212402 0.000000 0.000001
												CHANNELS 3 Xrotation Yrotation Zrotation
												End Site
												{
													OFFSET 5.180801 8.690506 1.388433
												}
											}
										}
									}
								}
								JOINT RightHandMiddle1
								{
									OFFSET -23.373947 0.000000 0.000001
									CHANNELS 3 Xrotation Yrotation Zrotation
									JOINT RightHandMiddle2
									{
										OFFSET -6.996567 0.000000 0.000000
										CHANNELS 3 Xrotation Yrotation Zrotation
										JOINT RightHandMiddle3
										{
											OFFSET -7.015945 0.000000 0.000000
											CHANNELS 3 Xrotation Yrotation Zrotation
											JOINT RightHandMiddle4
											{
												OFFSET -7.721573 0.000000 0.000000
												CHANNELS 3 Xrotation Yrotation Zrotation
												End Site
												{
													OFFSET 4.651108 6.158463 0.251582
												}
											}
										}
									}
								}
								JOINT RightHandRing1
								{
									OFFSET -22.726120 -0.094986 -6.500475
									CHANNELS 3 Xrotation Yrotation Zrotation
									JOINT RightHandRing2
									{
										OFFSET -6.408615 0.000000 0.000000
										CHANNELS 3 Xrotation Yrotation Zrotation
										JOINT RightHandRing3
										{
											OFFSET -6.150223 0.000000 0.000000
											CHANNELS 3 Xrotation Yrotation Zrotation
											JOINT RightHandRing4
											{
												OFFSET -6.145386 0.000000 0.000000
												CHANNELS 3 Xrotation Yrotation Zrotation
												End Site
												{
													OFFSET 3.671402 4.923981 -0.202372
												}
											}
										}
									}
								}
								JOINT RightHandPinky1
								{
									OFFSET -18.920792 -0.453171 -11.426712
									CHANNELS 3 Xrotation Yrotation Zrotation
									JOINT RightHandPinky2
									{
										OFFSET -4.919586 0.000000 0.000000
										CHANNELS 3 Xrotation Yrotation Zrotation
										JOINT RightHandPinky3
										{
											OFFSET -5.233047 0.000000 0.000000
											CHANNELS 3 Xrotation Yrotation Zrotation
											JOINT RightHandPinky4
											{
												OFFSET -5.571716 0.000000 0.000000
												CHANNELS 3 Xrotation Yrotation Zrotation
												End Site
												{
													OFFSET 3.459808 4.342407 -0.466164
												}
											}
										}
									}
								}
							}
						}
					}
				}
			}
		}
	}
	JOINT LeftUpLeg
	{
		OFFSET 19.899099 -7.885101 -3.429500
		CHANNELS 3 Xrotation Yrotation Zrotation
		JOINT LeftLeg
		{
			OFFSET 1.745560 -36.997807 10.304700
			CHANNELS 3 Xrotation Yrotation Zrotation
			JOINT LeftFoot
			{
				OFFSET -1.745558 -29.803308 -13.615400
				CHANNELS 3 Xrotation Yrotation Zrotation
				JOINT LeftToeBase
				{
					OFFSET 1.181900 -18.539904 15.226099
					CHANNELS 3 Xrotation Yrotation Zrotation
					JOINT LeftToe_End
					{
						OFFSET -0.863701 1.402801 16.534700
						CHANNELS 3 Xrotation Yrotation Zrotation
						End Site
						{
							OFFSET 0.000000 16.616566 0.000000
						}
					}
				}
			}
		}
	}
	JOINT RightUpLeg
	{
		OFFSET -19.899099 -7.885101 -3.429500
		CHANNELS 3 Xrotation Yrotation Zrotation
		JOINT RightLeg
		{
			OFFSET -1.745560 -36.997807 10.304700
			CHANNELS 3 Xrotation Yrotation Zrotation
			JOINT RightFoot
			{
				OFFSET 1.745558 -29.803308 -13.615400
				CHANNELS 3 Xrotation Yrotation Zrotation
				JOINT RightToeBase
				{
					OFFSET -1.181900 -18.539904 15.226099
					CHANNELS 3 Xrotation Yrotation Zrotation
					JOINT RightToe_End
					{
						OFFSET 0.863701 1.402801 16.534700
						CHANNELS 3 Xrotation Yrotation Zrotation
						End Site
						{
							OFFSET 0.000000 16.616566 0.000000
						}
					}
				}
			}
		}
	}
}
MOTION
Frames: 6
Frame Time: 0.033333
1.229826 83.623695 -0.107232 -61.812345 -92.837564 -62.565694 5.397774 -2.226460 -7.720274 2.771440 -0.553950 -1.077813 2.777689 -0.510267 -1.087489 -12.273410 6.004531 4.761554 20.231314 76.958016 -25.708547 0.000000 -0.000001 -0.000000 5.516880 -2.188419 12.208354 -41.899372 5.599304 2.227378 0.045090 -12.980526 -0.290001 -49.394169 -3.550612 -0.088062 40.109944 -15.297216 -0.360465 5.639951 28.097744 11.338731 1.088462 40.896321 22.734056 0.000000 0.000002 -0.000002 -17.946788 14.754990 -51.485939 8.868346 8.666975 -84.811975 4.540444 8.852613 -59.152983 0.000000 0.000001 -0.000000 -9.042491 10.045602 -60.766199 8.524044 9.508861 -66.892919 6.576547 9.896782 -70.385120 -0.000002 -0.000001 0.000001 -2.345529 4.688846 -62.655258 8.754186 9.897072 -87.051273 1.995367 4.929263 -37.483422 0.000001 -0.000002 0.000001 6.882281 2.839995 -61.140500 8.247955 7.640054 -89.897912 2.146193 8.173417 -41.827805 -0.000002 0.000003 0.000002 -2.478561 1.878760 -16.638409 -51.925888 54.163769 47.616609 1.362563 130.520284 0.246847 -70.593366 -0.218338 -24.603882 0.277496 -1.521514 -1.570514 7.169072 -41.689637 -15.773495 -4.517966 11.064492 4.673965 0.000001 0.000001 -0.000000 6.412859 -12.738392 14.389573 9.941754 -7.465170 101.743208 4.405013 -9.947420 61.138874 0.000002 -0.000005 -0.000002 2.653202 -11.302342 44.730919 9.916093 -9.880661 94.351195 8.462600 -8.530823 83.992236 0.000001 -0.000001 -0.000004 2.140185 -7.454483 61.765005 9.609257 -8.992462 89.388680 11.175490 -10.370852 97.638155 -0.000000 0.000002 0.000000 -4.886650 -23.798124 68.396176 13.518287 -7.949258 112.864942 8.544484 -10.117978 85.305641 0.000001 -0.000001 0.000000 -26.431946 35.086214 40.397963 26.218207 -13.634259 -1.540082 -7.446767 9.635519 -20.781267 -1.836410 -0.000605 -0.000027 -0.000000 -0.000004 0.000000 -35.626096 -9.826315 -25.038953 17.204277 12.177555 -2.827672 8.296689 12.497184 22.912527 -0.001638 -0.000369 0.000004 0.000000 -0.000000 0.000000 
1.250865 83.622665 -0.123266 -60.362500 -92.712571 -60.971992 5.379483 -2.227923 -7.578961 2.842259 -0.491337 -1.215701 2.843766 -0.454672 -1.233370 -12.345985 5.993469 4.704125 20.588883 76.815313 -25.959053 0.000000 0.000000 0.000000 6.225513 -2.154910 13.623617 -41.335437 6.555403 0.809792 -1.339940 -13.567274 -0.672259 -48.977272 -2.819961 1.037146 40.109938 -15.297221 -0.360464 5.639957 28.097745 11.338730 1.088465 40.896321 22.734052 0.000001 0.000002 0.000000 -17.946788 14.754990 -51.485939 8.868343 8.666974 -84.811975 4.540442 8.852612 -59.152990 -0.000000 0.000000 -0.000006 -9.042490 10.045600 -60.766192 8.524044 9.508862 -66.892919 6.576547 9.896784 -70.385120 -0.000001 -0.000001 0.000003 -2.345530 4.688845 -62.655258 8.754181 9.897070 -87.051273 1.995364 4.929266 -37.483416 -0.000002 -0.000002 0.000001 6.882281 2.839992 -61.140493 8.247960 7.640052 -89.897912 2.146185 8.173422 -41.827802 -0.000001 0.000003 0.000001 -2.507714 2.069967 -16.597206 -41.105137 48.163697 39.519744 -1.616654 134.231536 1.981122 -71.813702 1.083428 -19.758895 0.277513 -1.521529 -1.570551 7.169081 -41.689665 -15.773490 -4.517978 11.064489 4.673944 0.000001 -0.000001 0.000001 6.412840 -12.738388 14.389537 9.941772 -7.465142 101.743277 4.404977 -9.947390 61.138840 -0.000002 -0.000002 0.000003 2.653181 -11.302320 44.730905 9.916072 -9.880671 94.351181 8.462581 -8.530854 83.992189 0.000001 -0.000000 -0.000004 2.140155 -7.454467 61.765045 9.609274 -8.992475 89.388666 11.175464 -10.370822 97.638162 -0.000002 0.000002 0.000000 -4.886682 -23.798141 68.396135 13.518316 -7.949256 112.864942 8.544442 -10.117943 85.305600 -0.000000 -0.000000 0.000002 -26.346900 35.317877 40.129424 26.159877 -14.616912 -1.577597 -7.432608 10.479878 -20.377236 -1.836409 -0.000607 -0.000027 0.000000 0.000004 0.000000 -35.640972 -9.804691 -24.723938 17.529505 14.438878 -2.808923 8.333059 10.155457 22.715707 -0.001638 -0.000369 0.000004 -0.000000 0.000000 0.000000 
1.310256 83.616753 -0.181553 -61.277199 -92.591568 -61.549765 5.386816 -2.259675 -7.220346 2.860104 -0.397453 -1.561949 2.853498 -0.379959 -1.594255 -12.336806 5.934298 4.672784 20.955490 76.626246 -26.211059 0.000001 0.000000 -0.000000 6.012665 -2.792043 13.448557 -41.436623 6.055315 1.036077 -1.349344 -13.888962 -0.637388 -48.200228 -1.674207 1.931795 40.109941 -15.297220 -0.360464 5.639957 28.097745 11.338731 1.088464 40.896321 22.734058 -0.000002 0.000007 -0.000002 -17.946786 14.754991 -51.485939 8.868345 8.666976 -84.811975 4.540443 8.852613 -59.152983 0.000002 0.000002 -0.000005 -9.042493 10.045603 -60.766192 8.524044 9.508863 -66.892919 6.576547 9.896783 -70.385113 -0.000002 0.000000 0.000005 -2.345528 4.688846 -62.655258 8.754182 9.897074 -87.051273 1.995368 4.929266 -37.483422 -0.000003 0.000001 0.000001 6.882286 2.839994 -61.140500 8.247951 7.640054 -89.897905 2.146191 8.173420 -41.827805 -0.000000 0.000000 -0.000001 -2.570667 2.305504 -16.596462 -31.247224 39.191031 33.113000 -2.550634 137.373382 2.238653 -72.202169 3.130212 -12.268376 0.277468 -1.521518 -1.570518 7.169073 -41.689695 -15.773489 -4.517976 11.064509 4.673982 -0.000001 -0.000004 -0.000004 6.412811 -12.738427 14.389545 9.941780 -7.465147 101.743277 4.405029 -9.947433 61.138895 0.000003 0.000000 -0.000001 2.653167 -11.302346 44.730936 9.916076 -9.880675 94.351188 8.462595 -8.530862 83.992195 -0.000002 0.000002 -0.000004 2.140134 -7.454480 61.765039 9.609249 -8.992443 89.388694 11.175474 -10.370872 97.638162 -0.000005 0.000002 -0.000003 -4.886687 -23.798129 68.396176 13.518331 -7.949219 112.864928 8.544472 -10.117943 85.305620 -0.000000 -0.000000 0.000002 -26.134829 35.569542 39.727037 25.916985 -14.729901 -1.585611 -7.222992 10.424343 -20.293339 -1.836409 -0.000606 -0.000027 0.000000 0.000003 0.000000 -35.824489 -9.588737 -25.112519 17.914932 14.404826 -2.805998 8.182519 10.184669 22.687353 -0.001638 -0.000369 0.000004 -0.000000 -0.000000 -0.000000 
1.378387 83.585670 -0.286000 -60.723974 -92.478514 -60.596195 5.409033 -2.288762 -6.710976 2.838735 -0.231898 -2.002655 2.826861 -0.236776 -2.053623 -12.261227 5.855501 4.669932 21.782356 76.687322 -26.911773 0.000000 0.000001 -0.000000 5.748201 -3.876494 13.030429 -41.392224 5.289880 1.656756 -1.356505 -14.102322 -0.599731 -47.256658 -0.548434 2.859898 40.109938 -15.297214 -0.360465 5.639951 28.097744 11.338728 1.088469 40.896318 22.734054 -0.000001 -0.000001 -0.000001 -17.946788 14.754990 -51.485939 8.868346 8.666974 -84.811975 4.540441 8.852612 -59.152990 -0.000000 -0.000001 0.000001 -9.042494 10.045602 -60.766192 8.524044 9.508864 -66.892919 6.576545 9.896781 -70.385120 -0.000002 0.000000 0.000003 -2.345528 4.688847 -62.655258 8.754183 9.897073 -87.051273 1.995361 4.929263 -37.483416 -0.000001 0.000001 0.000001 6.882283 2.839994 -61.140493 8.247955 7.640050 -89.897905 2.146192 8.173413 -41.827805 -0.000000 0.000001 0.000001 -2.623014 2.388951 -16.505806 -24.551733 29.391902 30.385657 -3.400539 138.462906 2.606311 -73.222005 4.745596 -2.605535 0.277482 -1.521491 -1.570539 7.169039 -41.689685 -15.773523 -4.518008 11.064515 4.673971 -0.000001 0.000002 -0.000001 6.412799 -12.738400 14.389523 9.941768 -7.465191 101.743263 4.405014 -9.947410 61.138888 -0.000002 0.000001 -0.000001 2.653167 -11.302295 44.730895 9.916079 -9.880684 94.351222 8.462607 -8.530820 83.992202 0.000000 0.000001 -0.000002 2.140156 -7.454447 61.765025 9.609246 -8.992443 89.388701 11.175477 -10.370837 97.638169 -0.000001 0.000002 0.000000 -4.886700 -23.798117 68.396148 13.518300 -7.949215 112.864949 8.544447 -10.117945 85.305654 -0.000001 0.000000 0.000001 -25.875569 35.916652 39.325009 25.632496 -14.865862 -1.605645 -6.980285 10.368578 -20.237034 -1.836410 -0.000606 -0.000027 0.000000 0.000000 0.000000 -36.123464 -9.306873 -25.533204 18.466651 14.363167 -2.800218 7.995316 10.288509 22.601489 -0.001638 -0.000369 0.000004 -0.000000 -0.000000 -0.000000 
1.442189 83.512215 -0.454638 -60.746248 -92.547936 -60.285387 5.369267 -2.260300 -6.144790 2.656387 0.092103 -2.467390 2.647317 0.064375 -2.539760 -12.194961 5.758600 4.775482 23.438909 76.973712 -28.293323 -0.000001 0.000000 -0.000001 5.486552 -5.428601 12.268327 -40.962055 3.876126 2.740639 -3.654548 -14.059104 -1.286628 -44.154345 0.438375 3.896932 40.109944 -15.297218 -0.360463 5.639952 28.097742 11.338727 1.088465 40.896318 22.734052 0.000001 -0.000001 0.000000 -17.946786 14.754988 -51.485939 8.868346 8.666977 -84.811968 4.540442 8.852612 -59.152990 0.000001 0.000000 -0.000006 -9.042492 10.045602 -60.766192 8.524044 9.508861 -66.892919 6.576549 9.896780 -70.385120 -0.000002 0.000001 -0.000000 -2.345526 4.688845 -62.655251 8.754181 9.897073 -87.051273 1.995365 4.929264 -37.483422 -0.000001 0.000001 0.000001 6.882283 2.839995 -61.140493 8.247955 7.640055 -89.897905 2.146189 8.173418 -41.827805 -0.000003 0.000003 0.000001 -2.544947 2.096919 -16.291879 -21.197977 21.584086 30.398081 -3.898523 137.313071 2.978174 -74.507091 5.225130 6.698991 0.277495 -1.521518 -1.570513 7.169014 -41.689620 -15.773567 -4.517950 11.064475 4.673974 0.000005 0.000001 0.000005 6.412804 -12.738373 14.389513 9.941798 -7.465165 101.743277 4.404989 -9.947403 61.138867 -0.000000 -0.000003 -0.000002 2.653189 -11.302301 44.730888 9.916050 -9.880673 94.351188 8.462618 -8.530836 83.992209 0.000001 -0.000001 -0.000001 2.140151 -7.454452 61.765039 9.609265 -8.992483 89.388742 11.175464 -10.370864 97.638121 -0.000003 0.000001 0.000000 -4.886705 -23.798138 68.396155 13.518294 -7.949251 112.864976 8.544436 -10.117966 85.305654 0.000001 -0.000000 0.000002 -25.914089 36.238054 39.137295 25.404371 -15.021387 -1.639095 -6.725368 10.319519 -20.236647 -1.836410 -0.000604 -0.000027 0.000000 0.000000 0.000000 -36.633655 -8.994968 -25.808618 19.093565 14.288247 -2.784400 7.816439 10.410698 22.441246 -0.001638 -0.000369 0.000004 0.000000 -0.000000 -0.000000 
1.517570 83.518425 -0.679168 -66.734411 -92.606423 -66.136367 5.260428 -2.248411 -5.570354 2.355851 0.410632 -2.798238 2.362369 0.365197 -2.887769 -12.250223 5.875210 4.780391 22.204180 77.986683 -26.400839 -0.000001 0.000000 0.000000 5.065420 -6.787560 11.123632 -39.034500 2.597929 4.522795 -1.822079 -13.412204 -0.642228 -46.074947 0.464223 3.236758 40.109944 -15.297216 -0.360465 5.639956 28.097745 11.338728 1.088466 40.896318 22.734056 0.000001 -0.000000 -0.000001 -17.946786 14.754990 -51.485939 8.868348 8.666978 -84.811975 4.540443 8.852607 -59.152983 -0.000000 0.000001 0.000001 -9.042489 10.045601 -60.766192 8.524044 9.508861 -66.892919 6.576550 9.896784 -70.385120 -0.000001 -0.000001 -0.000002 -2.345527 4.688846 -62.655251 8.754182 9.897069 -87.051280 1.995367 4.929263 -37.483416 -0.000001 0.000001 0.000004 6.882285 2.839998 -61.140500 8.247955 7.640055 -89.897912 2.146187 8.173418 -41.827802 -0.000002 0.000005 0.000002 -2.083432 1.025264 -15.834089 -21.115617 17.891954 30.589105 -3.468724 137.343889 2.531730 -75.770847 4.238129 10.524621 0.277494 -1.521516 -1.570560 7.169096 -41.689730 -15.773514 -4.518010 11.064515 4.673978 0.000002 -0.000001 -0.000002 6.412827 -12.738397 14.389527 9.941812 -7.465149 101.743140 4.404993 -9.947454 61.138867 0.000000 0.000002 0.000001 2.653217 -11.302350 44.730885 9.916053 -9.880658 94.351195 8.462562 -8.530801 83.992243 -0.000001 -0.000001 -0.000004 2.140189 -7.454461 61.765018 9.609248 -8.992443 89.388701 11.175483 -10.370857 97.638155 0.000003 0.000000 -0.000005 -4.886710 -23.798129 68.396141 13.518307 -7.949206 112.864956 8.544443 -10.117949 85.305654 0.000001 -0.000000 0.000002 -26.206947 36.182750 39.073033 25.091014 -15.132743 -1.667621 -6.281621 10.250099 -20.278669 -1.836410 -0.000604 -0.000027 -0.000000 0.000002 -0.000000 -36.897061 -8.871206 -25.901706 19.458299 14.107540 -2.732496 7.656692 10.344496 22.255686 -0.001638 -0.000369 0.000004 -0.000000 -0.000000 0.000000 
